<svg width="23" height="22" viewBox="0 0 23 22" fill="none" xmlns="http://www.w3.org/2000/svg">
<path d="M16.8247 0.403564H5.93191C2.97618 0.403564 0.580078 2.79965 0.580078 5.75538V16.6482C0.580078 19.6039 2.97618 22 5.93191 22H16.8247C19.7804 22 22.1765 19.6039 22.1765 16.6482V5.75538C22.1765 2.79965 19.7804 0.403564 16.8247 0.403564Z" fill="#E6226D"/>
<path d="M11.6251 4.4059C7.85576 4.41052 4.80383 7.46705 4.80844 11.2364C4.80844 12.2029 5.00915 13.1188 5.37363 13.9492L2.82458 18.0646L7.9042 16.9435C8.97918 17.647 10.2641 18.0577 11.6413 18.0553C15.4106 18.0507 18.4648 14.9896 18.4625 11.2202C18.4579 7.4509 15.3967 4.39899 11.6274 4.4036L11.6251 4.4059ZM14.7508 9.01262V9.01724C14.6263 9.40017 14.5317 9.86153 14.4694 10.3898C14.2895 11.9215 14.4394 13.5478 14.4533 13.7047C14.4533 13.7116 14.4533 13.7162 14.4556 13.7231C14.4579 13.7877 14.4094 13.8431 14.3448 13.8477L13.9988 13.8639C13.9342 13.8662 13.8812 13.82 13.8766 13.7554L13.6343 10.7819C13.6343 10.7819 13.6297 10.7819 13.6274 10.7819C13.4475 10.7912 13.399 10.8627 13.0876 11.4209C13.0392 11.5109 12.9815 11.6124 12.9169 11.7277C12.8177 11.9031 12.7278 12.0853 12.6493 12.2722C11.9158 13.9977 11.8143 14.0715 11 14.1107C10.8685 14.1176 10.7416 14.1245 10.617 14.1314C8.38633 14.2399 7.91113 14.0553 7.74274 13.8616C7.6297 13.7324 7.65737 13.5893 7.67352 13.4948C7.67583 13.4809 7.67814 13.4671 7.68045 13.4532C7.6989 13.3356 7.81655 13.158 8.57088 12.7128C8.97226 12.4752 9.37365 12.2721 9.37826 12.2698C9.41748 12.2514 9.46362 12.2537 9.49822 12.2768C9.7612 12.4567 10.008 12.542 10.2387 12.5305C10.8454 12.5005 11.2514 11.8315 11.602 11.1118C11.8189 10.6643 12.5017 9.48552 13.0876 8.57432C13.8812 7.34248 14.0219 7.33557 14.1049 7.33095C14.1211 7.33095 14.1372 7.33095 14.1511 7.33556C14.3748 7.39554 14.5894 7.82691 14.6724 8.01607C14.9031 8.44744 14.7624 8.98725 14.7555 9.01031L14.7508 9.01262Z" fill="white"/>
</svg>
