<svg width="156" height="25" viewBox="0 0 156 25" fill="none" xmlns="http://www.w3.org/2000/svg">
<g clip-path="url(#clip0_910_35576)">
<path d="M16.8247 3.40356H5.93191C2.97618 3.40356 0.580078 5.79965 0.580078 8.75538V19.6482C0.580078 22.6039 2.97618 25 5.93191 25H16.8247C19.7804 25 22.1765 22.6039 22.1765 19.6482V8.75538C22.1765 5.79965 19.7804 3.40356 16.8247 3.40356Z" fill="#E6226D"/>
<path d="M11.6251 7.40587C7.85576 7.41049 4.80383 10.467 4.80844 14.2364C4.80844 15.2029 5.00915 16.1187 5.37363 16.9492L2.82458 21.0645L7.9042 19.9434C8.97918 20.647 10.2641 21.0576 11.6413 21.0553C15.4106 21.0507 18.4648 17.9896 18.4625 14.2202C18.4579 10.4509 15.3967 7.39896 11.6274 7.40357L11.6251 7.40587ZM14.7508 12.0126V12.0172C14.6263 12.4001 14.5317 12.8615 14.4694 13.3898C14.2895 14.9215 14.4394 16.5478 14.4533 16.7047C14.4533 16.7116 14.4533 16.7162 14.4556 16.7231C14.4579 16.7877 14.4094 16.8431 14.3448 16.8477L13.9988 16.8638C13.9342 16.8661 13.8812 16.82 13.8766 16.7554L13.6343 13.7819C13.6343 13.7819 13.6297 13.7819 13.6274 13.7819C13.4475 13.7911 13.399 13.8627 13.0876 14.4209C13.0392 14.5109 12.9815 14.6124 12.9169 14.7277C12.8177 14.903 12.7278 15.0853 12.6493 15.2721C11.9158 16.9976 11.8143 17.0714 11 17.1107C10.8685 17.1176 10.7416 17.1245 10.617 17.1314C8.38633 17.2398 7.91113 17.0553 7.74274 16.8615C7.6297 16.7323 7.65737 16.5893 7.67352 16.4947C7.67583 16.4809 7.67814 16.4671 7.68045 16.4532C7.6989 16.3356 7.81655 16.1579 8.57088 15.7127C8.97226 15.4751 9.37365 15.2721 9.37826 15.2698C9.41748 15.2514 9.46362 15.2537 9.49822 15.2767C9.7612 15.4567 10.008 15.542 10.2387 15.5305C10.8454 15.5005 11.2514 14.8315 11.602 14.1118C11.8189 13.6643 12.5017 12.4855 13.0876 11.5743C13.8812 10.3425 14.0219 10.3355 14.1049 10.3309C14.1211 10.3309 14.1372 10.3309 14.1511 10.3355C14.3748 10.3955 14.5894 10.8269 14.6724 11.016C14.9031 11.4474 14.7624 11.9872 14.7555 12.0103L14.7508 12.0126Z" fill="white"/>
<path d="M30.8294 19.5904C31.1131 19.768 31.4407 19.8373 31.8144 19.8027C32.1858 19.7681 32.5411 19.6965 32.8779 19.5881C33.2677 19.4635 33.6575 19.2951 34.0474 19.0829C34.3127 18.9238 34.548 18.76 34.751 18.5893C34.954 18.4209 35.127 18.2732 35.27 18.151C35.5699 17.8488 35.8629 17.5304 36.1466 17.1936C36.4304 16.8568 36.6864 16.5454 36.9171 16.2617C37.1639 15.9433 37.4038 15.6135 37.6345 15.2767C37.8813 14.9214 38.1212 14.5708 38.3519 14.2248C38.5826 13.8787 38.7948 13.5742 38.9886 13.3067C39.0417 13.2351 39.0947 13.1729 39.1478 13.1198C39.2355 13.0321 39.3162 12.9952 39.3877 13.0137C39.4753 13.0483 39.5469 13.1106 39.5999 13.2005C39.653 13.2905 39.6345 13.422 39.5469 13.5996C39.4062 13.8834 39.2447 14.1763 39.0693 14.4785C38.9263 14.7277 38.7672 15.0068 38.5918 15.3159C38.4142 15.6273 38.2297 15.9249 38.0336 16.2063C37.9621 16.3124 37.8837 16.4278 37.7937 16.5523C37.6345 16.7669 37.4223 17.0322 37.157 17.3505C37.0324 17.5097 36.8248 17.7496 36.5318 18.0679C36.2389 18.3863 35.8721 18.7254 35.4292 19.0806C34.9863 19.4359 34.4857 19.768 33.9275 20.0795C33.3692 20.3909 32.7625 20.5985 32.1074 20.7069C31.4338 20.813 30.8755 20.8315 30.4326 20.7623C29.9897 20.6908 29.6298 20.587 29.3553 20.4439C29.0808 20.3032 28.8271 20.0979 28.5964 19.8326C28.3473 19.4797 28.2019 18.9999 28.1558 18.3978C28.112 17.7957 28.2112 17.0322 28.4603 16.1094C28.6379 15.4358 28.8571 14.8199 29.1223 14.2617C29.3876 13.7034 29.6437 13.2282 29.8928 12.8384C30.1927 12.377 30.4949 11.9779 30.7948 11.6411C31.1131 11.2674 31.4315 10.9583 31.7521 10.7092C32.0705 10.46 32.3542 10.2663 32.6034 10.1232C32.9032 9.94562 33.1962 9.81183 33.4799 9.72417C33.6737 9.65266 33.879 9.60882 34.0912 9.59037C34.2873 9.57191 34.4995 9.58114 34.7302 9.61575C34.9609 9.65035 35.2008 9.73109 35.4476 9.85335C35.5353 9.92486 35.6345 9.99637 35.7406 10.0656C35.8283 10.1371 35.9228 10.2247 36.0197 10.3309C36.1166 10.437 36.2112 10.5615 36.2989 10.7023C36.405 10.9329 36.4857 11.2075 36.5388 11.5258C36.5734 11.7911 36.5872 12.1071 36.5803 12.4693C36.5711 12.8314 36.488 13.2351 36.3288 13.6804V13.7057C36.1697 14.1325 35.9344 14.5616 35.6253 14.9952C35.3162 15.4312 34.9217 15.8257 34.4442 16.1809C34.0197 16.5016 33.593 16.7715 33.1685 16.9929C32.7441 17.2144 32.345 17.392 31.9736 17.5258C31.6022 17.6596 31.2654 17.7657 30.9632 17.8465C30.661 17.9272 30.4142 17.9757 30.2181 17.9918C30.1835 18.3101 30.2019 18.6169 30.2711 18.9099C30.3426 19.2029 30.5295 19.4289 30.8294 19.5881V19.5904ZM35.3439 13.6042C35.5376 13.1429 35.653 12.7669 35.6876 12.4739C35.7222 12.1809 35.7129 11.9456 35.6599 11.768C35.5884 11.5719 35.4915 11.422 35.3669 11.3159C34.9586 11.1406 34.4718 11.2951 33.9044 11.7818C33.3369 12.2709 32.7256 12.9583 32.0728 13.8441C31.8236 14.1994 31.5953 14.5616 31.383 14.9353C31.187 15.2536 30.9978 15.6135 30.8133 16.0125C30.6264 16.4116 30.4811 16.8153 30.375 17.2236C30.8894 17.0806 31.4038 16.8868 31.9159 16.6377C32.4303 16.3886 32.9124 16.1048 33.3646 15.7842C33.8167 15.4658 34.2158 15.1244 34.5595 14.7599C34.9056 14.3978 35.1662 14.0102 35.3439 13.6019V13.6042Z" fill="#000100"/>
<path d="M44.2505 13.2491C44.5688 12.7162 44.8479 12.2779 45.0878 11.9319C45.3277 11.5859 45.5261 11.316 45.6853 11.1199C45.8791 10.8892 46.0382 10.7024 46.1628 10.5617C46.322 10.3841 46.4904 10.2433 46.668 10.1349C46.8087 10.0473 46.9679 9.97574 47.1455 9.92268C47.3231 9.86963 47.5008 9.87886 47.6784 9.94806C47.8906 10.0357 48.0198 10.1857 48.0636 10.4002C48.1074 10.6124 48.1005 10.8569 48.0382 11.1315C47.9759 11.406 47.8698 11.7035 47.7199 12.0219C47.5699 12.3402 47.3969 12.6609 47.2032 12.9792C47.0255 13.2445 46.7926 13.6297 46.4996 14.1372C46.2066 14.6424 45.9252 15.1799 45.6507 15.7474C45.3762 16.3149 45.1432 16.8777 44.9471 17.436C44.7533 17.9942 44.6726 18.451 44.7095 18.8062C44.728 18.9308 44.7718 19.0554 44.8433 19.1776C44.9148 19.3022 45.0555 19.3091 45.2677 19.203C45.48 19.0969 45.7106 18.9193 45.9598 18.6701C46.2066 18.421 46.4373 18.1742 46.6495 17.925C46.8964 17.6228 47.1455 17.2953 47.3923 16.94C47.6576 16.5502 47.9137 16.1511 48.1628 15.7428C48.4096 15.3345 48.6403 14.9539 48.8525 14.5986C49.0648 14.2434 49.2539 13.9296 49.4223 13.6528C49.5907 13.3783 49.7361 13.1707 49.8606 13.0277C49.8791 13.0092 49.9044 13 49.9414 13C50.029 13 50.119 13.0184 50.2066 13.053C50.2782 13.0715 50.3035 13.143 50.2874 13.2653C50.2689 13.2999 50.2297 13.4106 50.1674 13.5974C50.1051 13.782 50.0036 14.0173 49.8629 14.3033C49.5077 15.0669 49.1109 15.8028 48.668 16.511C48.2966 17.1153 47.8583 17.722 47.3531 18.3333C46.8479 18.9446 46.3127 19.4291 45.7453 19.7843C45.7268 19.8028 45.6391 19.8466 45.48 19.9181C45.3208 19.9896 45.1247 20.0427 44.894 20.0773C44.6634 20.1119 44.4119 20.105 44.1374 20.0519C43.8629 19.9989 43.593 19.8674 43.3254 19.6528C43.0417 19.406 42.8825 19.0115 42.8456 18.4694C42.8087 17.9297 42.8525 17.3299 42.9771 16.6747C42.7118 17.1015 42.4419 17.5121 42.1674 17.9112C41.8929 18.3103 41.6138 18.6701 41.33 18.9885C41.0463 19.3091 40.7764 19.5698 40.5203 19.7751C40.2643 19.9781 40.0197 20.0911 39.789 20.1073C39.5768 20.1419 39.3992 20.1465 39.2585 20.1211C39.1155 20.0934 38.9747 20.0473 38.834 19.9758C38.4442 19.7797 38.1858 19.4706 38.0612 19.0462C37.9367 18.6217 37.8652 18.2226 37.8467 17.8489C37.8283 17.6528 37.8283 17.4544 37.8467 17.2514C37.8652 17.0484 37.8905 16.8662 37.9252 16.707C37.9598 16.5133 37.9874 16.3356 38.0036 16.1742C38.2158 15.2168 38.4972 14.2941 38.8525 13.4083C39.2054 12.5225 39.623 11.6528 40.1005 10.8016C40.2066 10.624 40.3358 10.4302 40.4857 10.2157C40.6357 10.0034 40.8087 9.81657 41.0024 9.6574C41.1985 9.49823 41.4061 9.38289 41.6276 9.31138C41.8491 9.23987 42.0843 9.24909 42.3335 9.33675C42.5642 9.42441 42.7049 9.57205 42.7602 9.77505C42.8133 9.97805 42.8133 10.1926 42.7602 10.414C42.7072 10.6355 42.6288 10.8569 42.5227 11.0784C42.4165 11.2999 42.3196 11.4821 42.2297 11.6228C41.7337 12.421 41.2908 13.2422 40.9033 14.0842C40.5134 14.9262 40.1951 15.7912 39.9482 16.677C39.8606 17.0138 39.7891 17.3414 39.736 17.6621C39.7014 17.9458 39.6783 18.2342 39.6714 18.5271C39.6622 18.8201 39.7037 19.09 39.7914 19.3391C39.826 19.3207 39.9459 19.2099 40.1489 19.0069C40.3519 18.8039 40.6356 18.4694 40.9978 18.0081C41.36 17.5467 41.8121 16.9308 42.3519 16.158C42.8917 15.3875 43.5238 14.4141 44.2505 13.2445V13.2491Z" fill="#000100"/>
<path d="M58.6127 17.9942C59.074 17.5143 59.4662 17.0138 59.7938 16.4901C60.1213 15.9665 60.382 15.4936 60.5758 15.0668C60.8064 14.5709 61.0002 14.0726 61.1594 13.5766C61.2655 13.1498 61.3094 12.7646 61.2909 12.4186C61.2724 12.0726 61.2009 11.6435 61.0764 11.1291C60.9334 10.5801 60.9472 10.1233 61.1156 9.75883C61.284 9.39666 61.5723 9.24902 61.9783 9.31822C62.1029 9.35283 62.2044 9.41972 62.2851 9.51661C62.3659 9.61349 62.4236 9.72422 62.4582 9.84879C62.4928 9.97336 62.5112 10.1025 62.5112 10.234C62.5112 10.3655 62.5112 10.4786 62.5112 10.5662C62.4928 10.7438 62.502 10.9215 62.5389 11.0991C62.5735 11.2421 62.6288 11.4013 62.698 11.5766C62.7695 11.7542 62.8849 11.9042 63.044 12.0287C63.2032 12.1718 63.4178 12.2686 63.683 12.3217C63.9483 12.3748 64.2067 12.4117 64.4535 12.4278C64.7557 12.4463 65.0556 12.444 65.3578 12.4278C65.4454 12.4094 65.5262 12.4047 65.5977 12.414C65.6692 12.4232 65.7038 12.4532 65.7038 12.5062C65.7038 12.5962 65.6646 12.7023 65.5839 12.8246C65.5054 12.9492 65.3578 13.046 65.1456 13.1176C65.021 13.136 64.8964 13.1545 64.7742 13.1706C64.668 13.1891 64.5389 13.2029 64.3889 13.2121C64.239 13.2214 64.0821 13.2167 63.923 13.1983C63.6208 13.1637 63.3693 13.1106 63.164 13.0391C62.961 12.9676 62.7949 12.8892 62.6727 12.8015C62.5297 12.7139 62.4143 12.5985 62.3267 12.4555C62.3082 12.6677 62.2644 12.8984 62.1952 13.1475C62.1421 13.3598 62.066 13.6181 61.9691 13.918C61.8722 14.2202 61.7522 14.5386 61.6115 14.8753C61.5769 14.9284 61.5008 15.083 61.3855 15.3413C61.2701 15.5997 61.1064 15.9088 60.8941 16.2733C60.6819 16.6378 60.4212 17.0322 60.1098 17.4567C59.8007 17.8834 59.4501 18.3079 59.0602 18.7347C58.758 19.0714 58.4443 19.3598 58.1167 19.5997C57.7891 19.8396 57.4478 20.0034 57.0925 20.0934C56.8803 20.1464 56.7026 20.1556 56.5619 20.121C56.4189 20.0864 56.2782 20.0334 56.1351 19.9619C55.7453 19.7681 55.487 19.4567 55.3624 19.0322C55.2378 18.6078 55.1663 18.2087 55.1478 17.835C55.1294 17.6412 55.1294 17.4405 55.1478 17.2375C55.1663 17.0345 55.1917 16.8523 55.2263 16.6931C55.2609 16.4993 55.2886 16.3217 55.3047 16.1602C55.4985 15.2029 55.7776 14.2802 56.1398 13.3944C56.5019 12.5086 56.9218 11.6389 57.3993 10.7877C57.5054 10.61 57.6323 10.4163 57.7845 10.2017C57.9345 9.9895 58.1075 9.80266 58.3013 9.64349C58.4974 9.48432 58.705 9.36897 58.9264 9.29746C59.1479 9.22595 59.3832 9.23518 59.63 9.32284C59.8607 9.4128 60.0014 9.55814 60.0567 9.76114C60.1098 9.96414 60.1098 10.1787 60.0567 10.4001C60.0037 10.6216 59.9207 10.843 59.8053 11.0645C59.69 11.2859 59.5977 11.4682 59.5261 11.6089C59.0302 12.4071 58.585 13.2283 58.1859 14.0703C57.7892 14.9123 57.4731 15.7773 57.2447 16.6631C57.1571 16.9999 57.0856 17.3275 57.0325 17.6458C56.9979 17.9296 56.9748 18.2179 56.9679 18.5109C56.9587 18.8039 57.0002 19.0738 57.0879 19.3229C57.2655 19.2168 57.4385 19.0922 57.6069 18.9492C57.7753 18.8085 57.9299 18.6701 58.0729 18.5363C58.2136 18.4025 58.3335 18.2825 58.4327 18.1764C58.5296 18.0703 58.5873 18.008 58.6057 17.9895L58.6127 17.9942Z" fill="#000100"/>
<path d="M65.6347 19.5559C65.9185 19.7335 66.246 19.8027 66.6197 19.7681C66.9911 19.7335 67.3464 19.662 67.6831 19.5536C68.073 19.429 68.4629 19.2606 68.8527 19.0484C69.118 18.8892 69.3533 18.7254 69.5563 18.5547C69.7593 18.3863 69.9323 18.2387 70.0753 18.1164C70.3752 17.8142 70.6681 17.4959 70.9519 17.1591C71.2356 16.8223 71.4917 16.5109 71.7224 16.2271C71.9692 15.9065 72.2091 15.5789 72.4398 15.2421C72.6867 14.8869 72.9265 14.5362 73.1572 14.1902C73.3879 13.8442 73.6001 13.5397 73.7939 13.2721C73.847 13.2006 73.9 13.1383 73.9531 13.0852C74.0407 12.9976 74.1215 12.9607 74.193 12.9791C74.2806 13.0137 74.3521 13.076 74.4052 13.166C74.4582 13.2559 74.4398 13.3874 74.3521 13.5651C74.2114 13.8488 74.05 14.1418 73.8747 14.4416C73.7316 14.6908 73.5725 14.9699 73.3971 15.279C73.2195 15.5904 73.035 15.888 72.8389 16.1695C72.7674 16.2756 72.689 16.3909 72.599 16.5155C72.4398 16.7277 72.2276 16.9953 71.9623 17.3136C71.8377 17.4728 71.6301 17.7127 71.3372 18.0311C71.0442 18.3494 70.6774 18.6885 70.2345 19.0438C69.7916 19.399 69.291 19.7312 68.7328 20.0426C68.1745 20.354 67.5678 20.5616 66.9126 20.6701C66.2391 20.7762 65.6808 20.7946 65.2379 20.7254C64.795 20.6539 64.4351 20.5501 64.1606 20.4071C63.8861 20.2664 63.6324 20.0611 63.4017 19.7958C63.1525 19.4428 63.0072 18.963 62.9611 18.3609C62.9173 17.7589 63.0165 16.9953 63.2656 16.0726C63.4432 15.399 63.6624 14.7831 63.9276 14.2248C64.1929 13.6666 64.449 13.1914 64.6981 12.8015C64.998 12.3401 65.3002 11.9411 65.6001 11.6043C65.9184 11.2306 66.2368 10.9214 66.5574 10.6723C66.8758 10.4232 67.1595 10.2294 67.4086 10.0864C67.7085 9.90875 68.0015 9.77727 68.2853 9.6873C68.479 9.61579 68.6843 9.57196 68.8965 9.5535C69.0926 9.53505 69.3048 9.54428 69.5355 9.57888C69.7662 9.61348 70.0061 9.69422 70.2529 9.81648C70.3406 9.88799 70.4398 9.9595 70.5459 10.0287C70.6335 10.1002 70.7282 10.1879 70.8251 10.294C70.9219 10.4001 71.0165 10.5247 71.1042 10.6654C71.2103 10.8961 71.291 11.1706 71.3441 11.4889C71.3787 11.7542 71.3925 12.0702 71.3856 12.4324C71.3764 12.7946 71.2933 13.1983 71.1341 13.6435V13.6689C70.975 14.0956 70.7397 14.5247 70.4305 14.9607C70.1214 15.3967 69.727 15.7911 69.2495 16.1441C68.825 16.4647 68.3983 16.7346 67.9738 16.9561C67.5494 17.1775 67.1503 17.3552 66.7789 17.489C66.4075 17.6228 66.0707 17.7289 65.7685 17.8096C65.4663 17.8903 65.2195 17.9388 65.0234 17.9549C64.9888 18.2756 65.0072 18.5801 65.0764 18.8731C65.1479 19.166 65.3348 19.3921 65.6347 19.5512V19.5559ZM70.1491 13.5697C70.3429 13.1083 70.4582 12.7323 70.4928 12.4393C70.5274 12.1464 70.5182 11.9111 70.4652 11.7334C70.3937 11.5397 70.2968 11.3874 70.1722 11.2813C69.7639 11.106 69.2771 11.2606 68.7097 11.7473C68.1422 12.2363 67.5309 12.9238 66.8781 13.8096C66.6289 14.1648 66.4006 14.527 66.1883 14.9007C65.9923 15.2191 65.8031 15.5789 65.6186 15.978C65.4317 16.3771 65.2863 16.7808 65.1802 17.1891C65.6946 17.046 66.2091 16.8523 66.7212 16.6031C67.2356 16.354 67.7178 16.0703 68.1699 15.7496C68.622 15.4313 69.0211 15.0899 69.3648 14.7254C69.7108 14.3632 69.9715 13.9757 70.1491 13.5674V13.5697Z" fill="#000100"/>
<path d="M74.5943 19.0946C74.6289 19.2376 74.6428 19.3921 74.6358 19.5605C74.6266 19.7289 74.5343 19.8489 74.3567 19.9204C74.126 20.045 73.87 20.045 73.5863 19.9204C73.321 19.7958 73.1434 19.6459 73.0534 19.4683C72.7858 18.9907 72.6589 18.444 72.6659 17.8327C72.6751 17.2214 72.7304 16.6585 72.8366 16.1441C73.0303 15.1868 73.3094 14.2641 73.6716 13.3783C74.0338 12.4924 74.4536 11.6228 74.9311 10.7715C75.0372 10.5939 75.1641 10.4002 75.3164 10.1856C75.4663 9.9734 75.6347 9.78654 75.8216 9.62737C76.0084 9.4682 76.2114 9.35286 76.4329 9.28135C76.6543 9.20984 76.8896 9.21907 77.1388 9.30673C77.3694 9.39669 77.5102 9.54202 77.5655 9.74502C77.6186 9.94802 77.6232 10.1626 77.5793 10.384C77.5355 10.6055 77.4548 10.8269 77.3418 11.0484C77.2264 11.2698 77.1341 11.4521 77.0626 11.5928C76.7258 12.1257 76.4121 12.6701 76.1215 13.2283C75.8285 13.7866 75.5678 14.3494 75.3394 14.9169C75.4986 14.6862 75.667 14.4555 75.8446 14.2249C76.0222 13.9942 76.2068 13.7543 76.4029 13.5051C76.7397 13.0968 77.111 12.6908 77.5194 12.2802C77.9254 11.8719 78.3429 11.5005 78.7674 11.1614C79.1918 10.8246 79.6186 10.5363 80.0431 10.2963C80.4675 10.0564 80.885 9.89266 81.291 9.80269C81.4686 9.76809 81.6578 9.76809 81.8631 9.80269C82.0661 9.83729 82.2668 9.92726 82.4629 10.068C82.7651 10.3333 82.892 10.6608 82.8481 11.0507C82.8043 11.4405 82.7189 11.7681 82.5967 12.0357C82.5251 12.1787 82.4468 12.324 82.3568 12.474C82.2668 12.6262 82.1791 12.7808 82.0915 12.94C81.9139 13.2052 81.6809 13.5905 81.3879 14.098C81.0949 14.6032 80.8135 15.1407 80.539 15.7081C80.2645 16.2756 80.0361 16.8385 79.8493 17.3967C79.6647 17.955 79.5886 18.4117 79.6255 18.767C79.6255 18.8915 79.6601 19.0161 79.7316 19.1384C79.8031 19.2629 79.9531 19.2699 80.1837 19.1638C80.3775 19.0576 80.599 18.88 80.8481 18.6309C81.095 18.3817 81.3256 18.1349 81.5379 17.8858C81.7847 17.5836 82.0338 17.256 82.2807 16.9008C82.5459 16.5109 82.802 16.1118 83.0512 15.7035C83.298 15.2952 83.5287 14.9146 83.7409 14.5593C83.9531 14.2041 84.1468 13.8904 84.3245 13.6159C84.5021 13.3413 84.6521 13.1337 84.7766 12.9907C84.7951 12.9723 84.8204 12.963 84.8574 12.963C84.9289 12.963 85.0073 12.9815 85.0973 13.0161C85.1849 13.0507 85.2126 13.1222 85.178 13.2283C85.178 13.3183 85.0373 13.662 84.7536 14.2664C84.3983 15.0276 84.0016 15.7658 83.5586 16.474C83.1872 17.0784 82.7535 17.6851 82.2576 18.2964C81.7616 18.9077 81.2311 19.3921 80.6636 19.7474C80.629 19.7658 80.5344 19.8097 80.3845 19.8812C80.2345 19.9527 80.0384 20.0057 79.7985 20.0403C79.5586 20.0749 79.3025 20.068 79.028 20.015C78.7535 19.9619 78.4836 19.8304 78.216 19.6159C78.0038 19.4383 77.8608 19.1822 77.7893 18.8454C77.7178 18.5086 77.6947 18.1188 77.7224 17.6759C77.7478 17.2329 77.8193 16.767 77.9346 16.2802C78.0499 15.7935 78.2045 15.3183 78.3983 14.8569C78.5228 14.5547 78.6774 14.2179 78.8619 13.8465C79.0488 13.4751 79.2195 13.1383 79.3787 12.8362C79.5724 12.4809 79.7685 12.128 79.9623 11.7727C79.8031 11.8258 79.4802 12.0403 78.9934 12.4117C78.5067 12.7831 77.9738 13.2629 77.3995 13.8488C76.8227 14.4348 76.2668 15.113 75.727 15.8835C75.1872 16.6562 74.7835 17.4659 74.5205 18.3172C74.5205 18.4417 74.5297 18.5478 74.5482 18.6355C74.5482 18.8316 74.5666 18.9815 74.6013 19.0876L74.5943 19.0946Z" fill="#000100"/>
<path d="M89.2703 17.1384C89.1826 17.3344 89.0673 17.5282 88.9242 17.7243C88.7997 17.9019 88.6543 18.1026 88.4859 18.3218C88.3175 18.5432 88.1099 18.7693 87.8631 19C87.5609 19.3022 87.2125 19.5859 86.8135 19.8512C86.4144 20.1165 85.9853 20.3033 85.524 20.4094C85.0995 20.5155 84.7004 20.5132 84.3267 20.3979C83.9553 20.2826 83.6578 20.0496 83.4363 19.6943C83.2148 19.3391 83.0857 18.8616 83.0488 18.2595C83.0119 17.6574 83.1088 16.9215 83.3394 16.0519C83.5332 15.3783 83.7593 14.7623 84.0153 14.2041C84.2714 13.6458 84.5228 13.1706 84.772 12.7808C85.0557 12.3194 85.3556 11.9203 85.6739 11.5836C85.9922 11.2098 86.3106 10.9007 86.6312 10.6516C86.9496 10.4025 87.2333 10.2087 87.4825 10.0657C87.7824 9.88804 88.0753 9.75425 88.359 9.66659C88.5528 9.59508 88.7581 9.55124 88.9704 9.53279C89.1641 9.51434 89.3787 9.52357 89.6093 9.55817C89.84 9.59277 90.0799 9.67351 90.3267 9.79577C90.4513 9.86728 90.5666 9.94571 90.6728 10.0357C90.7604 10.1256 90.855 10.2271 90.9519 10.3402C91.0488 10.4555 91.1434 10.5916 91.231 10.7531C91.6186 9.83037 92.0407 8.93994 92.4906 8.0795C92.9427 7.21905 93.3718 6.43473 93.7778 5.72424C94.1838 5.01604 94.5483 4.40704 94.8666 3.90185C95.1849 3.39666 95.4156 3.03679 95.5563 2.82457C95.9093 2.27555 96.2207 1.83494 96.486 1.50737C96.7513 1.17981 97.0073 0.900679 97.2564 0.669998C97.4525 0.492373 97.6463 0.349352 97.8401 0.243239C98.0177 0.153273 98.1999 0.093296 98.3845 0.056387C98.5713 0.0217847 98.7605 0.0748386 98.9566 0.215554C99.0973 0.321668 99.178 0.48084 99.1965 0.693067C99.215 0.905294 99.1826 1.1452 99.1042 1.41049C99.0258 1.67577 98.9058 1.9549 98.7466 2.24786C98.5875 2.54083 98.4099 2.82918 98.2161 3.11292L97.6325 3.98951C97.4364 4.27325 97.2218 4.60543 96.9819 4.98836C96.742 5.36898 96.4814 5.80036 96.1976 6.27787C95.9485 6.70233 95.7109 7.13832 95.4802 7.58122C95.268 7.95493 95.0419 8.35401 94.8043 8.77846C94.5667 9.20292 94.3475 9.602 94.1538 9.9757C93.5517 11.1291 93.0211 12.2548 92.5621 13.3552C92.3683 13.8166 92.1768 14.2941 91.9923 14.7923C91.8077 15.2883 91.6393 15.7727 91.4894 16.241C91.3394 16.7116 91.2241 17.1637 91.1457 17.5974C91.0672 18.0311 91.035 18.4187 91.0534 18.7554C91.0719 18.8616 91.1111 18.9769 91.1734 19.1015C91.2357 19.226 91.3648 19.2514 91.5586 19.1822C91.9138 19.0392 92.2898 18.7693 92.6889 18.3702C93.088 17.9711 93.464 17.549 93.817 17.1061C94.2068 16.5917 94.5967 16.0334 94.9842 15.429C95.2311 15.0738 95.4894 14.6747 95.7547 14.2318C96.02 13.7889 96.2506 13.4336 96.4444 13.1683C96.4975 13.0968 96.5506 13.0345 96.6036 12.9815C96.6913 12.8938 96.772 12.8569 96.8435 12.8754C96.915 12.91 96.9819 12.9723 97.0442 13.0599C97.1065 13.1499 97.0927 13.2814 97.005 13.459C96.862 13.7427 96.7051 14.0357 96.5275 14.3379C96.3868 14.587 96.223 14.8662 96.0361 15.1753C95.8493 15.4844 95.6694 15.782 95.4917 16.0657C95.1203 16.7047 94.7213 17.2975 94.2968 17.8489C93.9254 18.3102 93.501 18.7531 93.0211 19.1799C92.5436 19.6067 92.0292 19.8719 91.4801 19.9781C91.231 20.0311 90.945 20.0496 90.6151 20.0311C90.2875 20.015 89.9715 19.8719 89.6716 19.6067C89.5286 19.5006 89.4271 19.3506 89.3648 19.1545C89.3025 18.9608 89.261 18.7462 89.2449 18.5155C89.2264 18.2849 89.2218 18.0496 89.231 17.8097C89.2402 17.5697 89.2518 17.3437 89.2703 17.1314V17.1384ZM89.1895 15.835C89.3671 15.5697 89.5424 15.3114 89.7201 15.0645C89.8792 14.4625 90.0638 13.8765 90.276 13.309C90.3475 13.1153 90.4121 12.9238 90.4744 12.737C90.5367 12.5501 90.6036 12.3609 90.6728 12.1649C90.6543 11.9526 90.6151 11.7612 90.5528 11.5928C90.4905 11.4244 90.3891 11.3137 90.246 11.2606C89.8562 11.0853 89.3764 11.2398 88.8112 11.7266C88.2437 12.2156 87.6324 12.9031 86.9795 13.7889C86.6612 14.2133 86.3567 14.7162 86.0637 15.2906C85.7708 15.8673 85.5193 16.4302 85.3071 16.9792C85.0949 17.5282 84.9449 18.0265 84.8573 18.4694C84.7696 18.9123 84.7604 19.2237 84.8319 19.3991C84.9196 19.5951 85.0626 19.6828 85.2587 19.6643C85.4547 19.6459 85.6208 19.5928 85.7638 19.5052C86.0107 19.399 86.2414 19.256 86.4536 19.0784C86.6659 18.9008 86.8596 18.7232 87.0372 18.5455C87.231 18.3494 87.4271 18.1372 87.6208 17.9065C87.9207 17.5697 88.1999 17.2237 88.4582 16.8685C88.7143 16.5132 88.9588 16.1672 89.1872 15.8304L89.1895 15.835Z" fill="#000100"/>
<path d="M102.747 12.8983C102.765 13.129 102.756 13.4035 102.721 13.7219C102.687 13.9872 102.624 14.3263 102.537 14.7323C102.449 15.1406 102.299 15.6019 102.087 16.114C102.265 16.1486 102.486 16.1625 102.751 16.1533C103.017 16.144 103.282 16.1256 103.549 16.1002C103.815 16.0725 104.073 16.0379 104.32 15.9941C104.569 15.9503 104.763 15.8995 104.906 15.8464C105.047 15.8118 105.127 15.8118 105.146 15.8464C105.164 15.881 105.155 15.9433 105.12 16.0333C105.086 16.1233 105.024 16.2386 104.934 16.3793C104.631 16.4693 104.322 16.5477 104.004 16.6192C103.702 16.6723 103.365 16.7184 102.994 16.753C102.622 16.7876 102.214 16.7899 101.771 16.753C101.381 17.4635 100.966 18.0518 100.523 18.5224C100.08 18.9929 99.6648 19.369 99.2749 19.655C99.185 19.7265 98.982 19.8672 98.6637 20.0818C98.3453 20.294 97.9716 20.4808 97.5471 20.64C97.4041 20.6746 97.2542 20.7115 97.095 20.7461C96.952 20.7807 96.7928 20.8084 96.6152 20.8269C96.4376 20.8453 96.2507 20.8361 96.0569 20.8015C95.8447 20.7669 95.6233 20.7184 95.3926 20.6562C95.1619 20.5939 94.9404 20.4831 94.7282 20.324C94.516 20.181 94.3684 19.9664 94.2899 19.6735C94.2092 19.3805 94.17 19.0483 94.17 18.6769C94.17 18.3055 94.2138 17.9018 94.3014 17.4681C94.3891 17.0345 94.5044 16.6031 94.6451 16.1786C94.7513 15.8764 94.862 15.6065 94.9774 15.3666C95.0927 15.1267 95.1942 14.9283 95.2818 14.7669C95.3879 14.5731 95.4941 14.4116 95.6002 14.287C95.3511 13.9318 95.1919 13.5604 95.1204 13.1705C95.0489 12.7807 95.0442 12.4047 95.1065 12.0402C95.1688 11.678 95.2842 11.3343 95.4503 11.016C95.6187 10.6953 95.817 10.4208 96.0477 10.1901C96.403 9.81643 96.8043 9.56037 97.2565 9.41735C97.7086 9.27432 98.1284 9.1959 98.5183 9.17744C98.9797 9.15899 99.4318 9.20281 99.8747 9.30892C100.442 9.45195 100.908 9.64572 101.27 9.89255C101.635 10.1417 101.925 10.4277 102.149 10.7553C102.371 11.0829 102.528 11.4335 102.615 11.8049C102.703 12.1763 102.749 12.5408 102.749 12.896L102.747 12.8983ZM96.5045 20.2179C96.6106 20.2363 96.7167 20.2179 96.8228 20.1648C96.9289 20.1118 97.0258 20.0587 97.1158 20.0056C97.2035 19.9341 97.2934 19.8626 97.3811 19.7934C97.8955 19.3667 98.3638 18.8707 98.7882 18.3032C99.2127 17.7357 99.584 17.1406 99.9024 16.52C99.531 16.467 99.1989 16.4001 98.9059 16.3216C98.6129 16.2432 98.3684 16.1671 98.1746 16.0956C97.9439 16.0264 97.7409 15.9364 97.5633 15.8303C97.3695 16.1671 97.1734 16.5177 96.9797 16.8799C96.7859 17.2444 96.6129 17.5973 96.4629 17.9433C96.313 18.2894 96.193 18.6169 96.1054 18.9284C96.0177 19.2398 95.9808 19.5004 95.9993 19.7127C96.0339 20.0149 96.2023 20.181 96.5045 20.2179ZM97.9624 15.1913C98.1585 15.2974 98.3707 15.3851 98.6014 15.4566C98.7974 15.5466 99.035 15.625 99.3188 15.6942C99.6025 15.7657 99.9116 15.8188 100.251 15.8534C100.534 15.1798 100.747 14.52 100.887 13.8718C101.028 13.2236 101.063 12.6446 100.991 12.1302C100.954 11.7403 100.857 11.4081 100.698 11.1336C100.539 10.8591 100.366 10.6377 100.179 10.4693C99.9924 10.3009 99.8101 10.1694 99.6348 10.0702C99.4572 9.97329 99.3165 9.90639 99.2103 9.87179C98.9612 9.80028 98.726 9.77029 98.5045 9.77952C98.283 9.78874 98.0915 9.81181 97.9324 9.84642C97.7363 9.89947 97.561 9.96176 97.3995 10.0333C97.1873 10.1394 96.9912 10.3101 96.8159 10.5385C96.6383 10.7691 96.4929 11.0344 96.3776 11.3366C96.2622 11.6388 96.193 11.9618 96.1654 12.3078C96.14 12.6538 96.1792 12.9952 96.2853 13.332C96.5321 13.0137 96.7582 12.7369 96.9635 12.5062C97.1665 12.2755 97.3672 12.0817 97.561 11.9202C97.7202 11.7611 97.8978 11.6273 98.0916 11.5212C98.2507 11.4335 98.4284 11.3574 98.6222 11.2951C98.8159 11.2328 99.012 11.2374 99.208 11.3066C99.4203 11.3966 99.5541 11.5373 99.6071 11.7311C99.6602 11.9272 99.6556 12.1555 99.5956 12.4231C99.5333 12.6884 99.418 12.9768 99.2519 13.2882C99.0835 13.5996 98.8943 13.8972 98.6821 14.1786C98.5944 14.3032 98.4883 14.4485 98.3638 14.6169C98.2392 14.7853 98.1077 14.9768 97.9647 15.189L97.9624 15.1913Z" fill="#000100"/>
<path d="M109.879 19.06C109.914 19.203 109.928 19.3576 109.919 19.526C109.909 19.6944 109.817 19.8143 109.639 19.8859C109.409 20.0104 109.153 20.0104 108.869 19.8859C108.62 19.7636 108.452 19.6113 108.364 19.4337C108.096 18.9562 107.965 18.4118 107.962 17.8005C107.962 17.1892 108.016 16.6263 108.119 16.1119C108.332 15.1546 108.613 14.2318 108.968 13.346C109.321 12.4602 109.739 11.5905 110.216 10.7393C110.322 10.5617 110.452 10.3656 110.601 10.1534C110.751 9.93886 110.924 9.75432 111.118 9.59515C111.314 9.43598 111.522 9.32064 111.743 9.24912C111.965 9.17761 112.2 9.18684 112.449 9.2745C112.68 9.36215 112.821 9.50979 112.876 9.71279C112.929 9.91579 112.929 10.1303 112.876 10.3518C112.823 10.5732 112.744 10.7947 112.638 11.0161C112.532 11.2376 112.435 11.4198 112.345 11.5606C112.152 11.8973 111.956 12.2388 111.762 12.5848C111.568 12.9308 111.381 13.2814 111.203 13.6344C111.328 13.4568 111.455 13.2837 111.589 13.1153C111.723 12.9469 111.84 12.7924 111.946 12.6494C112.071 12.4902 112.193 12.3403 112.318 12.1972C112.795 11.6298 113.291 11.1153 113.806 10.654C114.32 10.1926 114.869 9.89965 115.453 9.77508C115.63 9.74048 115.819 9.74048 116.025 9.77508C116.228 9.80968 116.428 9.89964 116.625 10.0404C116.784 10.1834 116.885 10.3333 116.931 10.4925C116.975 10.6517 116.994 10.8201 116.984 10.9977C116.975 11.1753 116.945 11.3483 116.892 11.5167C116.839 11.6851 116.786 11.8328 116.733 11.955C116.661 12.1511 116.574 12.3449 116.468 12.5409C116.38 12.737 116.269 12.9493 116.136 13.1799C116.002 13.4106 115.838 13.6598 115.644 13.925C115.891 13.5698 116.136 13.2422 116.375 12.94C116.613 12.6378 116.83 12.3725 117.026 12.1419C117.238 11.8766 117.45 11.6275 117.663 11.3968C118.034 10.9885 118.419 10.6378 118.818 10.3449C119.217 10.0519 119.646 9.86043 120.108 9.77277C120.285 9.73817 120.475 9.73817 120.68 9.77277C120.883 9.80737 121.074 9.89734 121.252 10.0381C121.57 10.3033 121.709 10.6332 121.665 11.0208C121.621 11.4106 121.536 11.7382 121.413 12.0058C121.342 12.1488 121.264 12.2941 121.174 12.4441C121.084 12.594 120.996 12.7509 120.908 12.91C120.731 13.1776 120.498 13.5629 120.205 14.0681C119.912 14.5733 119.63 15.1107 119.356 15.6782C119.081 16.2457 118.848 16.8086 118.652 17.3668C118.458 17.9251 118.378 18.3818 118.415 18.7371C118.433 18.8616 118.477 18.9862 118.548 19.1085C118.62 19.233 118.77 19.2423 119.001 19.1338C119.197 19.0277 119.416 18.8501 119.665 18.601C119.912 18.3518 120.142 18.105 120.355 17.8559C120.602 17.5537 120.851 17.2261 121.097 16.8708C121.363 16.481 121.619 16.0819 121.868 15.6736C122.115 15.2653 122.345 14.8847 122.558 14.5294C122.77 14.1742 122.959 13.8604 123.127 13.5859C123.296 13.3114 123.441 13.1015 123.566 12.9608C123.584 12.9423 123.61 12.9331 123.647 12.9331C123.734 12.9331 123.824 12.9516 123.912 12.9862C123.983 13.0046 124.009 13.0761 123.993 13.1984C123.993 13.2884 123.852 13.6321 123.568 14.2365C123.213 15 122.816 15.7359 122.373 16.4441C122.002 17.0462 121.563 17.6552 121.058 18.2665C120.553 18.8778 120.018 19.3622 119.45 19.7175C119.432 19.7359 119.344 19.7797 119.185 19.8513C119.026 19.9228 118.83 19.9758 118.599 20.0104C118.368 20.045 118.115 20.0381 117.84 19.985C117.566 19.932 117.296 19.7982 117.028 19.5883C116.816 19.4106 116.673 19.1546 116.601 18.8178C116.53 18.481 116.507 18.0911 116.535 17.6482C116.56 17.2053 116.631 16.7394 116.747 16.2526C116.862 15.7659 117.017 15.2907 117.21 14.8293C117.335 14.5271 117.485 14.1903 117.663 13.8189C117.838 13.4452 118.009 13.1084 118.166 12.8085C118.359 12.4533 118.555 12.1003 118.749 11.7451C118.643 11.8512 118.431 12.0681 118.112 12.3956C117.794 12.7232 117.43 13.1177 117.024 13.5813C116.615 14.0427 116.2 14.5525 115.776 15.1107C115.351 15.669 114.971 16.2319 114.634 16.7993C114.581 16.8893 114.518 17.0046 114.447 17.1454C114.375 17.2699 114.297 17.4153 114.207 17.5836C114.119 17.752 114.029 17.9343 113.942 18.1281C113.852 18.3241 113.746 18.4925 113.623 18.6333C113.517 18.7578 113.379 18.8593 113.21 18.9401C113.042 19.0208 112.834 19.0346 112.585 18.9816C112.283 18.9101 112.101 18.7117 112.039 18.3841C111.976 18.0565 111.988 17.6667 112.078 17.2146C112.165 16.7624 112.304 16.2803 112.488 15.7659C112.673 15.2515 112.869 14.7647 113.072 14.3034C113.275 13.842 113.467 13.4383 113.642 13.0923C113.819 12.7463 113.935 12.5202 113.988 12.4141C114.076 12.2549 114.156 12.1073 114.228 11.9758C114.299 11.842 114.359 11.7336 114.415 11.6436C114.484 11.5375 114.548 11.4291 114.601 11.323C114.477 11.4291 114.225 11.669 113.845 12.0427C113.464 12.4164 113.04 12.8731 112.569 13.4129C112.101 13.955 111.621 14.5571 111.134 15.2238C110.648 15.8881 110.237 16.5779 109.9 17.2861C109.882 17.4822 109.866 17.6759 109.847 17.872C109.829 18.0496 109.822 18.2434 109.822 18.4579C109.822 18.6702 109.84 18.8755 109.875 19.0692L109.879 19.06Z" fill="#000100"/>
<path d="M130.242 12.8708C130.26 13.1015 130.251 13.376 130.216 13.6943C130.182 13.9596 130.119 14.2964 130.032 14.7047C129.944 15.113 129.794 15.5744 129.582 16.0888C129.76 16.1234 129.981 16.1372 130.246 16.128C130.512 16.1188 130.777 16.1003 131.044 16.0749C131.31 16.0473 131.568 16.0127 131.815 15.9688C132.064 15.925 132.258 15.8742 132.401 15.8212C132.542 15.7866 132.622 15.7866 132.641 15.8212C132.659 15.8558 132.65 15.9181 132.615 16.008C132.581 16.098 132.518 16.211 132.429 16.3541C132.126 16.444 131.817 16.5225 131.499 16.594C131.197 16.647 130.86 16.6909 130.488 16.7278C130.117 16.7647 129.709 16.7647 129.266 16.7278C128.876 17.4383 128.461 18.0265 128.018 18.4971C127.575 18.9677 127.16 19.3437 126.77 19.6274C126.68 19.699 126.477 19.8397 126.159 20.0542C125.84 20.2664 125.467 20.4533 125.042 20.6148C124.899 20.6494 124.749 20.6863 124.59 20.7209C124.447 20.7555 124.288 20.7832 124.11 20.8016C123.933 20.8201 123.746 20.8108 123.552 20.7762C123.34 20.7416 123.118 20.6932 122.888 20.6309C122.657 20.5686 122.435 20.4579 122.223 20.2987C122.011 20.1557 121.863 19.9389 121.785 19.6482C121.704 19.3552 121.665 19.0231 121.665 18.6517C121.665 18.2803 121.709 17.8766 121.796 17.4406C121.884 17.0069 121.999 16.5755 122.14 16.1511C122.246 15.8512 122.357 15.579 122.472 15.3391C122.588 15.0992 122.689 14.9008 122.777 14.7416C122.883 14.5455 122.989 14.3863 123.095 14.2618C122.846 13.9088 122.687 13.5351 122.615 13.1453C122.544 12.7554 122.539 12.3794 122.601 12.0149C122.664 11.6528 122.779 11.3091 122.945 10.9907C123.114 10.6724 123.312 10.3956 123.543 10.1672C123.898 9.79578 124.299 9.53742 124.751 9.3944C125.204 9.25137 125.623 9.17295 126.013 9.15449C126.475 9.13604 126.927 9.17986 127.37 9.28598C127.937 9.42669 128.403 9.62047 128.765 9.86961C129.13 10.1164 129.42 10.4048 129.644 10.7324C129.866 11.0599 130.023 11.4106 130.11 11.782C130.198 12.1534 130.244 12.5178 130.244 12.8731L130.242 12.8708ZM123.999 20.1903C124.106 20.2065 124.212 20.1903 124.318 20.1372C124.424 20.0842 124.521 20.0311 124.611 19.9781C124.698 19.9066 124.788 19.8351 124.876 19.7635C125.39 19.3368 125.859 18.8408 126.283 18.2733C126.708 17.7059 127.079 17.113 127.397 16.4902C127.026 16.4371 126.694 16.3702 126.401 16.2918C126.108 16.211 125.863 16.1372 125.67 16.0657C125.439 15.9942 125.236 15.9065 125.058 15.8004C124.864 16.1372 124.668 16.4879 124.475 16.8523C124.281 17.2168 124.108 17.5698 123.958 17.9158C123.808 18.2618 123.688 18.5894 123.6 18.9008C123.513 19.2122 123.476 19.4729 123.494 19.6851C123.529 19.9873 123.697 20.1557 123.999 20.1903ZM125.457 15.1637C125.653 15.2699 125.866 15.3598 126.096 15.429C126.292 15.5167 126.53 15.5974 126.814 15.6666C127.097 15.7381 127.407 15.7889 127.746 15.8258C128.029 15.1522 128.242 14.4925 128.382 13.8442C128.523 13.1983 128.558 12.617 128.486 12.1026C128.449 11.7128 128.352 11.3806 128.193 11.1061C128.034 10.8315 127.861 10.6101 127.674 10.4417C127.487 10.2733 127.305 10.1418 127.13 10.0426C126.952 9.94573 126.811 9.87883 126.705 9.84423C126.456 9.77272 126.221 9.74273 125.999 9.75196C125.778 9.76118 125.587 9.78425 125.427 9.81886C125.231 9.87191 125.056 9.9342 124.894 10.0057C124.682 10.1118 124.486 10.2825 124.311 10.5109C124.133 10.7416 123.988 11.0069 123.873 11.3091C123.757 11.6113 123.688 11.9342 123.66 12.2802C123.635 12.6262 123.674 12.9677 123.78 13.3045C124.027 12.9838 124.253 12.7093 124.458 12.4786C124.661 12.2479 124.862 12.0542 125.056 11.8927C125.215 11.7335 125.393 11.5997 125.587 11.4936C125.746 11.4059 125.923 11.3298 126.117 11.2675C126.311 11.2053 126.507 11.2099 126.703 11.2791C126.915 11.369 127.049 11.5097 127.102 11.7035C127.155 11.8996 127.151 12.128 127.091 12.3956C127.028 12.6609 126.913 12.9492 126.747 13.2606C126.578 13.572 126.389 13.8673 126.177 14.1534C126.089 14.2779 125.981 14.4233 125.859 14.5917C125.734 14.7601 125.603 14.9515 125.46 15.1637H125.457Z" fill="#000100"/>
<path d="M136.892 17.0922C136.805 17.2883 136.689 17.4821 136.546 17.6782C136.422 17.8558 136.276 18.0565 136.108 18.2756C135.94 18.4971 135.732 18.7231 135.485 18.9538C135.183 19.256 134.835 19.5398 134.435 19.805C134.036 20.0726 133.607 20.2572 133.146 20.3656C132.721 20.4717 132.322 20.4671 131.949 20.3541C131.577 20.2387 131.28 20.0057 131.058 19.6505C130.837 19.2952 130.708 18.8177 130.671 18.2157C130.634 17.6136 130.731 16.8777 130.961 16.008C131.155 15.3344 131.381 14.7185 131.637 14.158C131.893 13.5997 132.145 13.1245 132.394 12.7346C132.678 12.2733 132.978 11.8742 133.296 11.5374C133.614 11.166 133.933 10.8546 134.253 10.6055C134.572 10.3563 134.855 10.1625 135.104 10.0195C135.404 9.8419 135.697 9.70811 135.981 9.62045C136.175 9.54893 136.38 9.50511 136.592 9.48665C136.788 9.4682 137.001 9.47742 137.231 9.51202C137.462 9.54663 137.702 9.62737 137.949 9.74963C138.073 9.82114 138.189 9.89957 138.295 9.98723C138.382 10.0772 138.477 10.1787 138.574 10.294C138.671 10.4094 138.765 10.5478 138.853 10.707C139.241 9.78423 139.663 8.8938 140.113 8.03335C140.565 7.17291 140.994 6.3886 141.4 5.6781C141.806 4.9699 142.17 4.3609 142.489 3.85571C142.807 3.35052 143.038 2.99065 143.178 2.77842C143.531 2.2294 143.843 1.7888 144.108 1.46123C144.373 1.13367 144.629 0.85454 144.878 0.623858C145.072 0.446233 145.268 0.30552 145.462 0.197099C145.64 0.107133 145.822 0.0471531 146.006 0.010244C146.193 -0.0243582 146.382 0.0286991 146.579 0.169415C146.719 0.275529 146.8 0.434699 146.818 0.649233C146.837 0.861461 146.805 1.10137 146.726 1.36665C146.648 1.63194 146.528 1.91106 146.369 2.20403C146.209 2.497 146.032 2.78535 145.838 3.06909L145.254 3.94798C145.058 4.23172 144.844 4.5639 144.604 4.94453C144.364 5.32515 144.103 5.75653 143.82 6.23635C143.57 6.6608 143.333 7.09679 143.102 7.5397C142.89 7.9111 142.664 8.31018 142.426 8.73694C142.189 9.1637 141.969 9.56278 141.776 9.93418C141.174 11.0876 140.643 12.2133 140.184 13.3137C139.988 13.775 139.799 14.2548 139.614 14.7508C139.43 15.2468 139.261 15.7312 139.111 16.1995C138.961 16.6701 138.846 17.1222 138.768 17.5559C138.689 17.9896 138.657 18.3771 138.675 18.7139C138.694 18.82 138.733 18.9354 138.795 19.0599C138.858 19.1845 138.987 19.2099 139.181 19.1384C139.536 18.9954 139.912 18.7255 140.311 18.3264C140.71 17.9273 141.086 17.5051 141.439 17.0622C141.829 16.5478 142.219 15.9896 142.606 15.3852C142.853 15.0299 143.111 14.6308 143.377 14.1879C143.642 13.745 143.873 13.3898 144.066 13.1245C144.119 13.053 144.173 12.9907 144.226 12.9376C144.313 12.85 144.394 12.8131 144.466 12.8315C144.537 12.8661 144.604 12.9284 144.666 13.0184C144.728 13.106 144.715 13.2398 144.627 13.4175C144.484 13.7012 144.327 13.9942 144.149 14.2964C144.009 14.5455 143.845 14.8246 143.658 15.1337C143.471 15.4452 143.291 15.7427 143.114 16.0242C142.742 16.6632 142.343 17.2583 141.919 17.8073C141.547 18.2687 141.123 18.7116 140.643 19.1384C140.166 19.5651 139.651 19.8304 139.102 19.9388C138.853 19.9919 138.567 20.0103 138.237 19.9919C137.91 19.9757 137.593 19.8327 137.294 19.5674C137.151 19.4613 137.049 19.3114 136.987 19.1153C136.924 18.9192 136.883 18.707 136.867 18.4763C136.848 18.2456 136.844 18.0103 136.853 17.7727C136.862 17.5328 136.874 17.3068 136.892 17.0945V17.0922ZM136.811 15.7889C136.989 15.5213 137.164 15.2652 137.342 15.0161C137.501 14.414 137.686 13.8281 137.898 13.2606C137.969 13.0645 138.034 12.8754 138.096 12.6885C138.159 12.5017 138.226 12.3125 138.295 12.1164C138.276 11.9042 138.237 11.7127 138.175 11.5443C138.113 11.3759 138.011 11.2652 137.868 11.2121C137.478 11.0345 136.998 11.1914 136.433 11.6781C135.866 12.1672 135.254 12.8546 134.602 13.7404C134.283 14.1672 133.979 14.6678 133.686 15.2445C133.393 15.8212 133.141 16.384 132.929 16.9331C132.717 17.4821 132.567 17.9804 132.479 18.4233C132.392 18.8662 132.382 19.1776 132.454 19.3552C132.542 19.549 132.685 19.639 132.881 19.6205C133.077 19.602 133.243 19.549 133.386 19.4613C133.633 19.3552 133.863 19.2122 134.076 19.0346C134.288 18.8569 134.482 18.6793 134.659 18.5017C134.855 18.3056 135.049 18.0934 135.243 17.8627C135.543 17.5259 135.822 17.1799 136.08 16.8246C136.336 16.4694 136.581 16.1234 136.809 15.7866L136.811 15.7889Z" fill="#000100"/>
<path d="M147.504 18.1441C147.291 18.4625 147.035 18.7739 146.733 19.0761C146.484 19.3252 146.175 19.5744 145.803 19.8212C145.432 20.0703 144.996 20.2479 144.5 20.3541C144.057 20.4602 143.653 20.4556 143.291 20.3425C142.929 20.2272 142.636 19.9942 142.412 19.6389C142.191 19.2837 142.062 18.8062 142.025 18.2041C141.988 17.602 142.085 16.8662 142.316 15.9965C142.493 15.3229 142.712 14.707 142.978 14.1487C143.243 13.5905 143.499 13.1153 143.748 12.7254C144.048 12.2641 144.35 11.865 144.65 11.5282C144.934 11.1729 145.261 10.8454 145.633 10.5432C145.933 10.294 146.306 10.0633 146.749 9.85112C147.192 9.63659 147.67 9.51433 148.184 9.47742C148.68 9.44282 149.104 9.52125 149.46 9.71502C149.762 9.87419 150.018 10.1533 150.233 10.5524C150.445 10.9515 150.491 11.5397 150.366 12.3194C150.525 12.1787 150.689 12.0841 150.858 12.0403C151.026 11.9965 151.19 12.0195 151.349 12.1072C151.545 12.2318 151.672 12.4002 151.734 12.6124C151.797 12.8246 151.815 13.0461 151.787 13.2767C151.762 13.5074 151.709 13.7335 151.628 13.955C151.55 14.1764 151.474 14.3586 151.402 14.4994C151.118 15.0668 150.818 15.6781 150.5 16.3356C150.182 16.9907 149.912 17.6136 149.69 18.1972C149.469 18.7831 149.328 19.2998 149.266 19.7543C149.204 20.2064 149.28 20.4948 149.492 20.617C149.688 20.5271 149.891 20.3864 150.103 20.1903C150.316 19.9942 150.532 19.7727 150.754 19.5236C150.975 19.2768 151.192 19.0092 151.404 18.7254C151.617 18.4417 151.82 18.158 152.016 17.8742C152.475 17.2006 152.927 16.474 153.37 15.692C153.723 15.0899 154.036 14.5524 154.311 14.0818C154.585 13.6112 154.812 13.2537 154.987 13.0045C155.021 12.9699 155.058 12.9423 155.093 12.9238C155.146 12.8892 155.234 12.8961 155.358 12.9492C155.43 12.9838 155.439 13.0922 155.386 13.2675C155.227 13.7104 155.024 14.2087 154.775 14.7577C154.562 15.2191 154.283 15.7589 153.94 16.3817C153.594 17.0023 153.174 17.6759 152.678 18.4048C152.376 18.8477 152.066 19.2745 151.748 19.6828C151.464 20.038 151.141 20.384 150.779 20.7208C150.415 21.0576 150.057 21.3068 149.702 21.466C149.453 21.5721 149.241 21.6343 149.063 21.6528C148.885 21.6713 148.726 21.662 148.583 21.6274C148.424 21.5928 148.29 21.5305 148.184 21.4429C148.006 21.3183 147.868 21.1822 147.771 21.03C147.674 20.88 147.598 20.7324 147.545 20.5917C147.474 20.4325 147.43 20.2641 147.411 20.0865C147.358 19.8373 147.34 19.5467 147.356 19.2099C147.372 18.8731 147.418 18.5178 147.487 18.1464L147.504 18.1441ZM144.74 19.4498C144.846 19.3967 144.957 19.3344 145.072 19.2629C145.187 19.1914 145.289 19.1199 145.377 19.0484C145.483 18.9769 145.589 18.8892 145.695 18.7831C146.048 18.4809 146.385 18.1395 146.705 17.7589C147.024 17.3783 147.307 17.0184 147.554 16.6816C147.838 16.2918 148.103 15.9019 148.35 15.5097C148.456 15.2445 148.581 14.9746 148.722 14.6977C148.862 14.4232 149.005 14.1695 149.146 13.9388C149.305 13.6735 149.455 13.4152 149.598 13.1683C149.617 13.0784 149.633 12.9376 149.651 12.7439C149.667 12.5501 149.667 12.3448 149.651 12.1326C149.633 11.9203 149.594 11.7243 149.531 11.5466C149.469 11.369 149.367 11.2537 149.224 11.2006C148.835 11.023 148.35 11.1798 147.776 11.6666C147.199 12.1556 146.585 12.8431 145.93 13.7289C145.612 14.1556 145.307 14.6562 145.014 15.2329C144.722 15.8096 144.475 16.3725 144.272 16.9215C144.069 17.4705 143.919 17.9688 143.822 18.4117C143.725 18.8546 143.72 19.166 143.81 19.3437C143.898 19.5374 144.036 19.6274 144.223 19.609C144.41 19.5905 144.581 19.5375 144.742 19.4498H144.74Z" fill="#000100"/>
</g>
<defs>
<clipPath id="clip0_910_35576">
<rect width="154.84" height="25" fill="white" transform="translate(0.580078)"/>
</clipPath>
</defs>
</svg>
